<svg id="Слой_1" data-name="Слой 1" xmlns="http://www.w3.org/2000/svg" viewBox="0 0 26.09 26"><title>16</title><path d="M1.62,26q0-9.75,0-19.49a.78.78,0,0,0-.37-.74A3.13,3.13,0,0,1,.19,2.16,3.26,3.26,0,0,1,3.24,0,3.26,3.26,0,0,1,6.29,2.16,3.12,3.12,0,0,1,5.22,5.74a.78.78,0,0,0-.37.74q0,9.75,0,19.49Z"/><path d="M6.49,19.23V13.4c0-2.13,0-4.27,0-6.4a2.6,2.6,0,0,1,.21-1A7,7,0,0,1,10.5,2a6.35,6.35,0,0,1,5.14.23c3.46,1.72,6.72,1,10-.41L26,1.62v.59c0,3.79,0,7.58,0,11.37a3.17,3.17,0,0,1-1.46,2.77,8.22,8.22,0,0,1-6.66,1.33c-1.22-.22-2.36-.83-3.58-1.08a14.14,14.14,0,0,0-3.62-.3A5.15,5.15,0,0,0,6.49,19.23ZM11.37,6.78a4.05,4.05,0,0,0-2.27.77,1.93,1.93,0,0,0-1,1.94,5.93,5.93,0,0,1,0,1v2.36A6.55,6.55,0,0,1,11.37,11V14.6a12,12,0,0,1,4.88,1V11.86a6.62,6.62,0,0,0,4.9.57V16a4.38,4.38,0,0,0,2.5-1.12c.26-.26.64-.55.67-.85.09-.92,0-1.86,0-2.86a7.9,7.9,0,0,1-3.21,1.23V8.31l-1,.09a9.69,9.69,0,0,1-3.86-.6c0-1.08,0-2.16,0-3.25A.66.66,0,0,0,16,4.09a6.53,6.53,0,0,0-4.23-.82c-.32,0-.4.21-.39.51C11.38,4.78,11.37,5.78,11.37,6.78Zm9.76,1.54c1-.27,1.91-.52,2.82-.8.16,0,.39-.25.39-.39,0-1,0-2,0-3l-3.23.6Z"/><path d="M11.36,11.05V6.77a13.92,13.92,0,0,1,4.38.81l.51.21v3.86A7.06,7.06,0,0,0,11.36,11.05Z"/></svg>