<svg id="Слой_1" data-name="Слой 1" xmlns="http://www.w3.org/2000/svg" viewBox="0 0 20.09 20.04"><title>12</title><path d="M20.08,11.23a1.58,1.58,0,0,1-1.56,1,1.13,1.13,0,0,0-1.18.87,1.13,1.13,0,0,0,.15,1.25c.94,1.24.89,1.54-.21,2.64-.24.24-.47.48-.72.72a1.22,1.22,0,0,1-1.63.16c-.3-.19-.57-.4-.86-.61a1.35,1.35,0,0,0-.19-.13,2.2,2.2,0,0,0-1.52.81c-.06.35-.11.69-.17,1a1.26,1.26,0,0,1-1.28,1.08H9.23A1.26,1.26,0,0,1,8,19a.81.81,0,0,1,0-.19,1.46,1.46,0,0,0-1.33-1.62.55.55,0,0,0-.38,0c-.3.18-.57.4-.86.6a1.26,1.26,0,0,1-1.82-.15c-.37-.36-.74-.73-1.1-1.11a1.25,1.25,0,0,1-.14-1.67l.09-.13c.71-1,.72-1,.18-2.15a.5.5,0,0,0-.31-.22c-.4-.09-.82-.14-1.22-.23A1.22,1.22,0,0,1,.09,11q0-.9,0-1.8A1.22,1.22,0,0,1,1.09,8a11.45,11.45,0,0,1,1.15-.2.37.37,0,0,0,.37-.32,1.22,1.22,0,0,1,.16-.44c.36-.49.19-.87-.15-1.3A3.6,3.6,0,0,1,2,4.64a1,1,0,0,1,.32-1c.4-.41.8-.82,1.22-1.21A1.22,1.22,0,0,1,5.25,2.3c.3.2.58.44.89.63a.77.77,0,0,0,.45,0c.11,0,.21-.12.32-.14.73-.11,1-.59,1-1.25a1.62,1.62,0,0,1,1-1.51h2.42a1.57,1.57,0,0,1,1,1.47,1.12,1.12,0,0,0,1,1.26c.11,0,.21.13.32.14a.86.86,0,0,0,.48,0c.32-.19.61-.44.93-.64a1.22,1.22,0,0,1,1.63.16c.25.23.47.49.72.71,1.08,1,1.11,1.58.21,2.65A1.07,1.07,0,0,0,17.36,7a1.14,1.14,0,0,0,1.17.87,1.56,1.56,0,0,1,1.56,1Zm-4.46-8.1c-.43.31-.89.63-1.34,1a.74.74,0,0,1-.83.08c-.53-.24-1.07-.46-1.62-.67a.7.7,0,0,1-.52-.61c-.06-.45-.16-.9-.22-1.35,0-.29-.16-.4-.45-.38a11.67,11.67,0,0,1-1.21,0c-.26,0-.38.07-.41.33-.06.45-.16.9-.22,1.35a.79.79,0,0,1-.58.7c-.51.19-1,.4-1.5.63a.77.77,0,0,1-.87-.08c-.37-.28-.76-.54-1.14-.82a.27.27,0,0,0-.43,0c-.31.33-.63.66-1,1s-.16.31,0,.49c.29.38.56.78.84,1.17a.69.69,0,0,1,.07.76c-.24.53-.46,1.07-.66,1.62A.69.69,0,0,1,3,8.84l-1.42.23c-.23,0-.34.13-.33.38,0,.44,0,.88,0,1.33,0,.24.1.32.31.36.46.07.92.17,1.38.23a.78.78,0,0,1,.68.59c.18.5.39,1,.62,1.47a.79.79,0,0,1-.08.9c-.28.36-.52.74-.8,1.11a.29.29,0,0,0,0,.46c.33.31.66.63,1,1,.16.18.29.16.46,0,.36-.27.75-.52,1.11-.8A.81.81,0,0,1,6.83,16a14.88,14.88,0,0,0,1.44.59.76.76,0,0,1,.57.7c.06.45.16.9.22,1.35,0,.23.13.31.36.3h1.37c.21,0,.3-.08.33-.29.06-.48.16-.95.23-1.42a.72.72,0,0,1,.51-.62c.55-.2,1.08-.43,1.61-.67a.71.71,0,0,1,.8.08c.39.29.79.55,1.17.84a.27.27,0,0,0,.43,0c.31-.33.63-.66,1-1s.17-.31,0-.49c-.27-.36-.52-.75-.8-1.11A.75.75,0,0,1,16,13.4a15.8,15.8,0,0,0,.64-1.54.75.75,0,0,1,.67-.55c.46-.06.93-.13,1.38-.24a.45.45,0,0,0,.28-.31,11.05,11.05,0,0,0,0-1.4.41.41,0,0,0-.25-.29c-.46-.1-.92-.18-1.38-.24a.77.77,0,0,1-.7-.57A13.11,13.11,0,0,0,16,6.74a.77.77,0,0,1,.08-.9c.33-.43.63-.89.94-1.31Z"/><path d="M10.11,5.75A4.31,4.31,0,1,1,5.78,10,4.29,4.29,0,0,1,10.11,5.75Zm0,1.12a3.19,3.19,0,1,0,3.18,3.18A3.23,3.23,0,0,0,10.09,6.87Z"/></svg>