<svg id="Слой_1" data-name="Слой 1" xmlns="http://www.w3.org/2000/svg" viewBox="0 0 23.98 16"><title>5</title><path d="M37.53-17.06h1.09a2.37,2.37,0,0,1,.21.7c0,.64-.07,1.27-.14,1.91a11.17,11.17,0,0,1-2.19,5.52,23.19,23.19,0,0,1-3.79,3.87.75.75,0,0,0-.31.59c-.06,1.33-.15,2.65-.2,4a.86.86,0,0,1-.48.81C30.5,1,29.27,1.75,28,2.46s-.87.69-1.83-.24a.7.7,0,0,1-.2-.8c.3-.94.58-1.89.88-2.83A.46.46,0,0,0,26.75-2q-1.51-1.48-3-3a.49.49,0,0,0-.58-.14c-.94.3-1.89.58-2.83.88a.65.65,0,0,1-.77-.19c-.23-.26-.5-.48-.75-.73q0-.16,0-.31c.88-1.5,1.78-3,2.64-4.51a.9.9,0,0,1,.84-.5c1.3,0,2.6-.14,3.9-.19a.88.88,0,0,0,.66-.33c.94-1,1.86-2,2.87-3a10.59,10.59,0,0,1,6.5-3C36.68-17,37.11-17,37.53-17.06ZM34.94-12a1.16,1.16,0,0,0,1.18-1.15,1.19,1.19,0,0,0-1.2-1.19,1.17,1.17,0,0,0-1.15,1.19A1.14,1.14,0,0,0,34.94-12Z"/><path d="M0,14.68V1.32A1.69,1.69,0,0,1,1.75,0C6.47,0,11.18,0,15.9,0c1.19,0,1.74.63,1.75,2,0,.51,0,1,0,1.61l.53-.35L22.33.41c.37-.25.75-.46,1.18-.18A1.28,1.28,0,0,1,24,1.43Q24,8,24,14.57a1.28,1.28,0,0,1-.49,1.21c-.43.28-.81.07-1.18-.19l-4.19-2.85-.5-.31c0,.75,0,1.39,0,2a1.51,1.51,0,0,1-1.22,1.49,3.82,3.82,0,0,1-.65,0c-4.62,0-9.24,0-13.86,0A1.75,1.75,0,0,1,0,14.68ZM21.46,4.35c-.09,0-.13,0-.15,0L19.07,5.9c-.46.32-1.1.54-1.33,1a5.27,5.27,0,0,0-.1,1.83.62.62,0,0,0,.31.62c1.06.7,2.11,1.42,3.16,2.13a3.71,3.71,0,0,0,.34.18Z"/></svg>