<svg id="Слой_1" data-name="Слой 1" xmlns="http://www.w3.org/2000/svg" viewBox="0 0 80 80"><title>19</title><path d="M0,42.69V37.84a3,3,0,0,0,.13-.52A37.65,37.65,0,0,1,4.7,21.57C11.13,9.78,21.13,3,34.27.79c1.17-.2,2.36-.3,3.54-.45H42a3.82,3.82,0,0,0,.6.13,40,40,0,0,1-1.7,79.85,38.63,38.63,0,0,1-19.8-4.77C9.81,69.38,3.08,59.84.62,47.24.33,45.74.2,44.21,0,42.69Zm75.15-2.36A35.14,35.14,0,1,0,39.82,75.5,35.2,35.2,0,0,0,75.15,40.33Z"/><path d="M42.48,28.43c0,3.62,0,7.24,0,10.86A1.81,1.81,0,0,0,43,40.43Q48.69,46.25,54.46,52a2.61,2.61,0,0,1,1,2.28,2.42,2.42,0,0,1-3.91,1.52,7.6,7.6,0,0,1-.62-.59c-4-4-7.92-8-12-11.91a4.42,4.42,0,0,1-1.41-3.38q0-11.21,0-22.42A2.47,2.47,0,0,1,40,14.86a2.52,2.52,0,0,1,2.5,2.72C42.49,21.19,42.48,24.81,42.48,28.43Z"/></svg>