<svg id="Слой_1" data-name="Слой 1" xmlns="http://www.w3.org/2000/svg" viewBox="0 0 89 80"><title>18</title><path d="M28.95,31.1c1.05-.54,2-1,2.94-1.52a52.32,52.32,0,0,0,12.65-8.95A24.78,24.78,0,0,0,51.58,8c.19-1,.29-1.94.45-2.91A5.84,5.84,0,0,1,59-.07c5.86,1,9.72,5.61,9.84,11.78a29.14,29.14,0,0,1-3.21,14.38,4.8,4.8,0,0,0-.22.5.87.87,0,0,0,0,.26h1.31c4.44,0,8.88,0,13.32,0a8.1,8.1,0,0,1,7.71,4.64A8.61,8.61,0,0,1,87,40.85l-.46.65a9.12,9.12,0,0,1-1.77,13.34A9.13,9.13,0,0,1,82,66.63a26.17,26.17,0,0,1,.85,2.89,8.54,8.54,0,0,1-7.44,10.15c-.77.07-1.54.11-2.3.11-6.93,0-13.86.08-20.78,0a60.61,60.61,0,0,1-16.95-2.19C32.91,76.89,30.52,76,28,75.11a3.21,3.21,0,0,0-.25.34,8.17,8.17,0,0,1-7.36,4.35c-5.57.05-11.13,0-16.7,0a2.71,2.71,0,0,1-2.92-3q0-23.5,0-47a2.73,2.73,0,0,1,3-3q11.06,0,22.12,0c1.91,0,3,1.12,3,3.09C29,30.3,28.95,30.63,28.95,31.1Zm0,22.16q0,7.62,0,15.24c0,.47,0,.88.55,1.09,2.63.93,5.2,2.05,7.87,2.83a57.63,57.63,0,0,0,16.1,1.85c6.84,0,13.68,0,20.52,0a6.89,6.89,0,0,0,1.15-.09,3.08,3.08,0,0,0,2.37-3.86c-.45-1.68-1.66-2.24-3.2-2.42a2.74,2.74,0,0,1,.06-5.44c.85-.09,1.72,0,2.57-.06a5.68,5.68,0,0,0,1.49-.19,3.09,3.09,0,0,0,2-3.21,3,3,0,0,0-2.54-2.79c-1.11-.13-2.25-.06-3.37-.12a2.6,2.6,0,0,1-2.44-2.15,2.74,2.74,0,0,1,2.82-3.37c1.81,0,3.61,0,5.42,0a2.94,2.94,0,0,0,2.81-2.14,3.12,3.12,0,0,0-3-4.13c-1.81,0-3.61,0-5.42,0a2.62,2.62,0,0,1-2.59-2.1,2.74,2.74,0,0,1,2.74-3.43c1.87,0,3.73,0,5.6,0A3,3,0,0,0,83.38,35a3.09,3.09,0,0,0-3.32-2.66H55a2.73,2.73,0,0,1-2.89-2.71A2.76,2.76,0,0,1,55,26.85c1.15,0,2.31,0,3.46,0a1.1,1.1,0,0,0,.79-.39,24.6,24.6,0,0,0,4.22-15.22,6.11,6.11,0,0,0-5-5.75c-1-.16-1.11-.1-1.23,1A28.41,28.41,0,0,1,55,14.85,35.22,35.22,0,0,1,43.87,28.49a83.33,83.33,0,0,1-14.16,8.4A1.17,1.17,0,0,0,29,38.12C29,43.17,29,48.22,29,53.27Zm-11.42,21h2.38c2.52,0,3.68-1.21,3.68-3.85q0-18.46,0-36.93c0-.33,0-.65,0-1.06h-1c-5.15,0-10.3,0-15.46,0-.85,0-1,.27-1,1.09q0,19.85,0,39.7c0,.33,0,.66.05,1.08h6c0-.43,0-.76,0-1.09,0-2.52,0-5,0-7.57a4.55,4.55,0,0,1,.55-2.07,2.43,2.43,0,0,1,2.91-1,2.75,2.75,0,0,1,1.85,2.76c0,2.28,0,4.55,0,6.83C17.55,72.82,17.55,73.49,17.55,74.27Z"/></svg>