<svg id="Слой_1" data-name="Слой 1" xmlns="http://www.w3.org/2000/svg" viewBox="0 0 17.28 17.96"><title>11</title><path d="M8.16,0A2.78,2.78,0,0,1,8.6.35a.72.72,0,0,1,.1.82A.77.77,0,0,1,8,1.64H1.68V16.39h6a2.66,2.66,0,0,1,.46,0,.81.81,0,0,1,.66.76A.8.8,0,0,1,8.2,18a1.94,1.94,0,0,1-.49.05H1.1C.3,18,0,17.74,0,16.94Q0,9,0,1.09A1,1,0,0,1,.67,0Z"/><path d="M14.09,8.19H4.44a2.62,2.62,0,0,0-.53,0,.79.79,0,0,0,0,1.55,2.67,2.67,0,0,0,.53,0h9.72l-.29.31-2,2a.83.83,0,0,0-.26.89.68.68,0,0,0,.63.53,1.2,1.2,0,0,0,.76-.25c1.27-1.22,2.52-2.47,3.76-3.72a.81.81,0,0,0,0-1.25Q14.86,6.53,13,4.69a.82.82,0,1,0-1.15,1.17c.66.67,1.33,1.33,2,2a3,3,0,0,0,.31.23Z"/></svg>