<svg id="Слой_1" data-name="Слой 1" xmlns="http://www.w3.org/2000/svg" viewBox="0 0 26.08 25.94"><title>6</title><path d="M39.63-17.06h1.09a2.37,2.37,0,0,1,.21.7c0,.64-.07,1.27-.14,1.91a11.17,11.17,0,0,1-2.19,5.52,23.19,23.19,0,0,1-3.79,3.87.75.75,0,0,0-.31.59c-.06,1.33-.15,2.65-.2,4a.86.86,0,0,1-.48.81c-1.25.7-2.47,1.44-3.71,2.15s-.87.69-1.83-.24a.7.7,0,0,1-.2-.8c.3-.94.58-1.89.88-2.83A.46.46,0,0,0,28.85-2q-1.51-1.48-3-3a.49.49,0,0,0-.58-.14c-.94.3-1.89.58-2.83.88a.65.65,0,0,1-.77-.19c-.23-.26-.5-.48-.75-.73q0-.16,0-.31c.88-1.5,1.78-3,2.64-4.51a.9.9,0,0,1,.84-.5c1.3,0,2.6-.14,3.9-.19a.88.88,0,0,0,.66-.33c.94-1,1.86-2,2.87-3a10.59,10.59,0,0,1,6.5-3C38.78-17,39.2-17,39.63-17.06ZM37-12a1.16,1.16,0,0,0,1.18-1.15A1.19,1.19,0,0,0,37-14.31a1.17,1.17,0,0,0-1.15,1.19A1.14,1.14,0,0,0,37-12Z"/><path d="M13.48,26a1.8,1.8,0,0,1-1-1.29c-.33-1-.76-2-1.15-3-.1-.26-.26-.29-.52-.22-.56.15-1.12.26-1.68.39a1.54,1.54,0,0,1-1.57-.46c-1-1-2-2-3-3A1.51,1.51,0,0,1,4.15,17l.48-2.16L1.58,13.63c-.19-.07-.4-.08-.59-.14a1.2,1.2,0,0,1-.65-1.91,10,10,0,0,1,7.1-4.14,1.09,1.09,0,0,0,.86-.51,15.17,15.17,0,0,1,5.38-5A14.47,14.47,0,0,1,19,.33C20.86.15,22.71.09,24.55,0c1.05,0,1.53.46,1.52,1.5a35.37,35.37,0,0,1-.6,7.17,13.58,13.58,0,0,1-4.4,7.58c-.65.56-1.36,1.06-2,1.62a1.13,1.13,0,0,0-.37.65,10.18,10.18,0,0,1-4.08,7.15c-.16.12-.34.22-.51.33ZM23.63,2.39c-1.51.12-3,.19-4.4.37A11.67,11.67,0,0,0,11.32,7,23.24,23.24,0,0,0,6.7,16.78a.68.68,0,0,0,.18.52c.6.64,1.25,1.24,1.85,1.88a.66.66,0,0,0,.72.18,24.55,24.55,0,0,0,8-3.33,13.25,13.25,0,0,0,4.29-4.25C23.4,8.92,23.54,5.73,23.63,2.39Zm-17,7.24a7.87,7.87,0,0,0-3.83,2.18l2.43,1.07ZM13.2,20.84l1.07,2.43a7.71,7.71,0,0,0,2.17-3.82Z"/><path d="M3.67,20.35a2.05,2.05,0,0,1,2,1.57,2,2,0,0,1-1.18,2.32c-1,.37-2,.65-3,.95-.43.12-.67-.12-.55-.56.29-1,.57-2.05,1-3A1.93,1.93,0,0,1,3.67,20.35Z"/><path d="M17.53,10.57a2,2,0,0,1-2-2,2,2,0,1,1,2,2Z"/></svg>