<svg id="Слой_1" data-name="Слой 1" xmlns="http://www.w3.org/2000/svg" viewBox="0 0 67.95 80"><title>21</title><path d="M67.38,58.22c-.88-4.62-3.43-7.79-8.14-9a39,39,0,0,1-8.55-3.48c-1.12-.6-5.16-3.68-7.56-5.4.29-.2.58-.41.86-.64a18.23,18.23,0,0,0,6-9.87,38.2,38.2,0,0,0,.75-15.29,16.75,16.75,0,0,0-4.32-9.47A15.56,15.56,0,0,0,37.86.45C37,.28,36.08.15,35.19,0h-3c-.53.1-1.06.22-1.59.3A15.39,15.39,0,0,0,19.55,7.56a19.88,19.88,0,0,0-2.67,9.17,36.63,36.63,0,0,0,1.49,14.68,17.71,17.71,0,0,0,5,7.9c.26.23.52.44.79.64C20,42.8,12.65,48.1,8.51,49.23c-4.74,1.29-7.18,4.56-8,9.21A34.62,34.62,0,0,0,.32,68.6a4.47,4.47,0,0,0,2.81,4.1c2.61,1.06,5.13,2.38,7.78,3.32a69.38,69.38,0,0,0,23,3.75l0,.22c3.95-.39,7.92-.63,11.84-1.19a59.16,59.16,0,0,0,19.5-6.35,3.88,3.88,0,0,0,2.18-3.08A33.13,33.13,0,0,0,67.38,58.22ZM21.67,26.52a35,35,0,0,1-.2-11c.55-3.95,2.09-7.35,5.73-9.4a13.78,13.78,0,0,1,9.35-1.36,11,11,0,0,1,7.57,4.58,14,14,0,0,1,2.27,6.38c.16,1.29.22,2.59.32,3.85A30,30,0,0,1,45,30.82c-1.52,3.81-4,6.64-8.22,7.4s-8.31.21-11.41-3.26A16.57,16.57,0,0,1,21.67,26.52ZM63.12,68.08a1.25,1.25,0,0,1-.61.77,52.38,52.38,0,0,1-13,4.71,68.63,68.63,0,0,1-27.13.79A58.42,58.42,0,0,1,5.58,69a1.45,1.45,0,0,1-.91-1.28,31.32,31.32,0,0,1,.18-8.54c.52-2.88,2-4.95,5-5.7A35,35,0,0,0,14.13,52C17.53,50.7,24.93,44.83,28,42.81l.81-.55a17.62,17.62,0,0,0,4.59.7,18.34,18.34,0,0,0,5.26-.57l.95.62C44,45.89,53.33,52.2,58.4,53.6A5.88,5.88,0,0,1,62.73,58,25.4,25.4,0,0,1,63.12,68.08Z"/></svg>